<svg width="1440" height="1024" viewBox="0 0 1440 1024" fill="none" xmlns="http://www.w3.org/2000/svg">
<g clip-path="url(#clip0_287_4757)">
<circle cx="720" cy="512" r="256" stroke="#8C8F94" stroke-opacity="0.2" stroke-width="2"/>
<circle cx="720" cy="512" r="320" stroke="#8C8F94" stroke-opacity="0.2" stroke-width="2"/>
<circle cx="720" cy="512" r="384" stroke="#8C8F94" stroke-opacity="0.2" stroke-width="2"/>
<circle cx="720" cy="512" r="448" stroke="#8C8F94" stroke-opacity="0.2" stroke-width="2"/>
<g class="rotating-dots">
    <animateTransform 
        attributeName="transform" 
        type="rotate" 
        from="360 720 512" 
        to="0 720 512" 
        dur="20s" 
        repeatCount="indefinite"
    />

    <path d="M272 512C272 453.168 283.588 394.912 306.102 340.558C328.616 286.204 361.616 236.817 403.216 195.216" stroke="url(#paint0_linear_287_4757)" stroke-width="2" stroke-linecap="round"/>
    <path d="M744.568 959.128C637.979 964.984 532.802 932.588 447.982 867.774C363.161 802.96 304.272 709.988 281.921 605.605" stroke="url(#paint1_linear_287_4757)" stroke-width="2" stroke-linecap="round"/>
    <path d="M958.568 132.613C1029.38 177.168 1086.3 240.661 1122.89 315.902C1159.47 391.144 1174.26 475.126 1165.57 558.338C1156.88 641.549 1125.06 720.664 1073.72 786.723C1022.38 852.781 953.563 903.143 875.072 932.105" stroke="url(#paint2_linear_287_4757)" stroke-width="2" stroke-linecap="round"/>
    <circle cx="272" cy="512" r="4" fill="#DD2233"/>
    <circle cx="744.567" cy="959.129" r="3.5" transform="rotate(-93.1448 744.567 959.129)" fill="#EB7A85" stroke="#EB7A85"/>
    <circle cx="958.57" cy="132.613" r="3.5" transform="rotate(122.177 958.57 132.613)" fill="#F1A7AD" stroke="#F1A7AD"/>
</g>

<g class="rotating-dots">
    <animateTransform 
        attributeName="transform" 
        type="rotate" 
        from="0 720 512" 
        to="360 720 512" 
        dur="20s" 
        repeatCount="indefinite"
    />
    <circle cx="719.516" cy="127.516" r="4" transform="rotate(122.177 719.516 127.516)" fill="#D5D6D8"/>
    <circle cx="567.516" cy="230.516" r="4" fill="#D5D6D8"/>
    <circle cx="895" cy="325" r="4" fill="#D5D6D8"/>
    <circle cx="463" cy="703" r="4" fill="#D5D6D8"/>
    <circle cx="510" cy="834" r="4" fill="#D5D6D8"/>
    <circle cx="971" cy="803" r="4" fill="#D5D6D8"/>
    <circle cx="1039" cy="536" r="4" fill="#D5D6D8"/>
</g>
<path d="M219.825 566.532C219.827 566.532 219.83 566.531 220.826 570.25L219.83 566.531L358.156 529.467C374.208 525.166 383.259 526.157 391.977 527.129C398.411 527.845 404.47 528.515 413.513 527.05C415.355 526.752 416.933 526.494 418.213 526.373C419.481 526.253 420.891 526.215 422.29 526.618C424.311 527.2 425.904 528.23 427.263 529.835C428.176 530.913 428.709 532.13 429.112 533.29C429.383 534.07 429.645 534.982 429.923 535.998L457.208 528.687C458.265 528.404 459.29 528.127 460.171 527.966C461.098 527.797 462.204 527.687 463.413 527.944C465.096 528.301 466.623 529.183 467.774 530.461C468.601 531.38 469.059 532.393 469.376 533.28C469.678 534.123 469.949 535.15 470.233 536.208L479.678 571.46C479.962 572.518 480.24 573.543 480.401 574.424C480.57 575.35 480.679 576.456 480.422 577.665C480.064 579.348 479.183 580.875 477.904 582.026C476.986 582.853 475.973 583.312 475.086 583.629C474.243 583.93 473.216 584.201 472.159 584.485L444.874 591.796C445.141 592.814 445.37 593.734 445.526 594.545C445.757 595.751 445.903 597.072 445.651 598.462C445.277 600.532 444.412 602.219 442.953 603.734C441.943 604.782 440.703 605.455 439.545 605.986C438.376 606.521 436.881 607.086 435.136 607.749C426.572 611.002 421.66 614.61 416.446 618.448C409.382 623.648 402.039 629.034 385.988 633.335L247.661 670.399L246.626 666.535L247.657 670.4C247.655 670.401 247.653 670.401 247.651 670.402C247.647 670.403 247.642 670.403 247.636 670.405C247.626 670.408 247.612 670.411 247.596 670.416C247.563 670.424 247.518 670.435 247.463 670.449C247.353 670.477 247.2 670.515 247.006 670.56C246.617 670.649 246.064 670.77 245.366 670.902C243.972 671.166 241.992 671.481 239.584 671.697C234.787 672.128 228.192 672.179 221.113 670.602C214.013 669.022 206.37 665.788 199.624 659.622C192.863 653.443 187.207 644.504 183.814 631.844C180.422 619.183 180.851 608.614 183.616 599.882C186.376 591.169 191.378 584.548 196.737 579.629C202.079 574.725 207.816 571.471 212.186 569.446C214.379 568.429 216.252 567.711 217.591 567.243C218.262 567.009 218.801 566.836 219.182 566.72C219.373 566.662 219.524 566.617 219.633 566.586C219.688 566.57 219.732 566.558 219.765 566.548L219.825 566.532Z" fill="#EFEFF0" stroke="#EFEFF0" stroke-width="8"/>
<path fill-rule="evenodd" clip-rule="evenodd" d="M220.865 570.395C220.865 570.395 174.798 582.739 187.678 630.809C200.558 678.878 246.626 666.535 246.626 666.535L384.953 629.47C400.319 625.353 407.197 620.29 414.075 615.227C419.347 611.346 424.62 607.465 433.715 604.01C437.309 602.645 439.106 601.962 440.073 600.958C440.985 600.012 441.481 599.042 441.715 597.75C441.963 596.378 441.516 594.709 440.621 591.369L426.453 538.492C425.558 535.153 425.111 533.484 424.21 532.42C423.361 531.417 422.446 530.826 421.184 530.462C419.844 530.077 417.947 530.384 414.152 530.999C404.547 532.554 398.041 531.829 391.534 531.104C383.046 530.159 374.558 529.213 359.192 533.33L220.865 570.395ZM203.735 598.599C205.738 598.062 215.154 597.149 221.728 621.685C228.302 646.221 219.691 650.137 217.689 650.675C215.686 651.212 207.101 649.218 201.198 627.186C195.294 605.154 201.732 599.135 203.735 598.599Z" stroke="#8C8F94" stroke-width="2"/>
<path d="M427.097 540.897L458.243 532.551C460.486 531.95 461.608 531.65 462.582 531.857C463.438 532.039 464.215 532.487 464.801 533.138C465.468 533.878 465.768 535 466.369 537.243L475.815 572.495C476.416 574.738 476.717 575.86 476.51 576.834C476.328 577.691 475.879 578.468 475.228 579.054C474.488 579.72 473.366 580.02 471.123 580.622L439.977 588.967L427.097 540.897Z" stroke="#8C8F94" stroke-width="2"/>
<g clip-path="url(#clip1_287_4757)">
<path d="M281.027 616.528L282.207 610.577L270.587 597.86L276.513 596.273L283.476 604.595L284.571 594.114L289.981 592.664L286.336 615.105L281.027 616.528Z" fill="#8C8F94"/>
<path d="M300.804 611.229L296.576 595.451L291.115 596.914L291.797 592.177L305.149 588.6L306.287 592.849L301.431 594.15L305.658 609.928L300.804 611.229Z" fill="#8C8F94"/>
<path d="M349.123 598.282L338.8 589.951L343.524 578.317L338.007 579.795L334.235 590.343L332.975 585.642L331.851 581.445L326.997 582.746L332.363 602.773L337.217 601.472L336.295 598.031L334.773 592.35L343.15 599.882L349.123 598.282Z" fill="#8C8F94"/>
<path d="M380.909 589.765L378.632 581.267L371.352 583.217L373.629 591.715L368.772 593.017L363.406 572.99L368.263 571.688L370.377 579.579L377.657 577.628L375.543 569.738L380.4 568.436L385.766 588.463L380.909 589.765Z" fill="#8C8F94"/>
<path d="M315.161 585.917C313.18 586.448 311.402 587.554 310.05 589.096C308.697 590.637 307.833 592.545 307.565 594.578C307.298 596.611 307.639 598.678 308.546 600.517C309.453 602.356 310.885 603.885 312.661 604.911C314.436 605.936 316.476 606.411 318.523 606.277C320.569 606.143 322.529 605.405 324.156 604.157C325.783 602.909 327.003 601.206 327.662 599.264C328.321 597.323 328.39 595.229 327.859 593.248C327.147 590.592 325.41 588.328 323.028 586.953C320.647 585.578 317.817 585.205 315.161 585.917ZM319.3 601.365C318.225 601.653 317.089 601.616 316.035 601.258C314.981 600.9 314.056 600.238 313.379 599.355C312.701 598.472 312.301 597.407 312.228 596.296C312.156 595.186 312.414 594.078 312.971 593.114C313.528 592.15 314.358 591.373 315.356 590.881C316.355 590.389 317.477 590.204 318.58 590.35C319.684 590.496 320.719 590.965 321.556 591.7C322.393 592.434 322.993 593.4 323.28 594.475C323.665 595.917 323.462 597.452 322.716 598.744C321.97 600.036 320.742 600.98 319.301 601.368L319.3 601.365Z" fill="#8C8F94"/>
<path d="M265.095 599.332L256.6 601.609L261.964 621.628L266.818 620.328L265.031 613.66L268.673 612.684C270.413 612.183 271.887 611.018 272.777 609.442C273.668 607.865 273.904 606.002 273.436 604.253C272.967 602.503 271.831 601.008 270.271 600.088C268.711 599.168 266.853 598.896 265.095 599.332ZM266.484 609.368L264.056 610.019L262.429 603.949L264.858 603.298C265.654 603.109 266.493 603.237 267.196 603.656C267.899 604.075 268.411 604.752 268.622 605.542C268.834 606.333 268.729 607.175 268.33 607.889C267.931 608.604 267.268 609.134 266.484 609.368Z" fill="#8C8F94"/>
<path d="M364.316 581.791C363.314 579.548 361.548 577.734 359.333 576.672C357.118 575.61 354.598 575.369 352.222 575.992C349.846 576.616 347.768 578.062 346.36 580.075C344.951 582.088 344.303 584.535 344.531 586.981C344.759 589.427 345.849 591.712 347.605 593.43C349.361 595.147 351.67 596.185 354.121 596.358C356.571 596.531 359.003 595.829 360.984 594.375C362.964 592.922 364.365 590.813 364.934 588.423L360.326 587.308C360.117 588.198 359.694 589.023 359.094 589.712C358.493 590.4 357.733 590.932 356.88 591.26C356.027 591.588 355.107 591.703 354.199 591.594C353.292 591.485 352.425 591.156 351.674 590.636L364.174 581.882L364.316 581.791ZM349.461 587.589C349.45 587.549 349.44 587.511 349.43 587.471C349.126 586.346 349.18 585.154 349.584 584.061C349.988 582.968 350.722 582.027 351.684 581.37C352.646 580.712 353.788 580.369 354.953 580.389C356.118 580.409 357.249 580.791 358.187 581.482L349.461 587.589Z" fill="#8C8F94"/>
</g>
<path d="M1275.46 293.216C1278.64 294.069 1281.26 294.767 1283.34 295.511C1285.46 296.27 1287.36 297.186 1288.98 298.644C1291.49 300.905 1293.22 303.903 1293.92 307.208C1294.38 309.339 1294.22 311.438 1293.82 313.657C1293.42 315.83 1292.72 318.448 1291.86 321.63L1258.54 445.985C1257.69 449.167 1256.99 451.787 1256.25 453.867C1255.49 455.991 1254.57 457.885 1253.11 459.504C1250.85 462.015 1247.86 463.746 1244.55 464.449C1242.42 464.902 1240.32 464.748 1238.1 464.343C1235.93 463.947 1233.31 463.242 1230.13 462.39L1001.31 401.078C998.126 400.225 995.506 399.526 993.426 398.783C991.302 398.023 989.407 397.107 987.788 395.649C985.277 393.388 983.547 390.391 982.844 387.086C982.391 384.955 982.545 382.856 982.949 380.637C983.345 378.464 984.05 375.845 984.903 372.663L1018.22 248.309L1018.84 246.027C1019.43 243.851 1019.96 241.987 1020.52 240.427C1021.28 238.303 1022.19 236.408 1023.65 234.789C1025.91 232.278 1028.91 230.547 1032.22 229.845C1034.35 229.392 1036.45 229.546 1038.66 229.95C1040.84 230.346 1043.46 231.051 1046.64 231.904L1275.46 293.216Z" fill="#EFEFF0" stroke="#EFEFF0" stroke-width="8"/>
<path d="M1176.78 270.915L1165.96 311.277M1265.93 402.953L1271.34 382.772L1288 320.595C1289.74 314.103 1290.61 310.857 1290.01 308.039C1289.48 305.56 1288.18 303.312 1286.3 301.616C1284.16 299.689 1280.91 298.819 1274.42 297.08L1226.49 284.236L1193.25 275.33L1176.78 270.915L1126.77 257.517L1110.15 253.064M1110.15 253.064L1045.6 235.767C1039.11 234.028 1035.86 233.158 1033.05 233.757C1030.57 234.284 1028.32 235.582 1026.62 237.465C1024.7 239.606 1023.83 242.852 1022.09 249.344L1021.65 250.979M1110.15 253.064L1105.34 271.027C1105.12 271.848 1105.01 272.259 1104.99 272.673C1104.97 273.041 1105 273.409 1105.08 273.768C1105.17 274.173 1105.35 274.56 1105.7 275.335L1109.4 283.472C1109.75 284.246 1109.93 284.633 1110.02 285.038C1110.1 285.397 1110.13 285.766 1110.11 286.133C1110.09 286.547 1109.98 286.958 1109.76 287.78L1104.95 305.743M1110.15 253.064L1101.84 250.837M1033.66 405.604L1017.04 401.151L1002.34 397.214C995.851 395.474 992.605 394.605 990.465 392.677C988.581 390.981 987.283 388.733 986.756 386.254C986.157 383.436 987.027 380.19 988.766 373.699L994.612 351.883L997.316 341.793L1000.02 331.702L1005.43 311.521L1010.83 291.34L1013.54 281.25L1016.24 271.16L1018.95 261.069L1021.65 250.979M1033.66 405.604L1043.54 368.721C1043.88 367.452 1044.05 366.818 1044.02 366.199C1043.99 365.65 1043.86 365.113 1043.62 364.621C1043.34 364.064 1042.89 363.589 1041.98 362.64L1033.04 353.301C1032.14 352.352 1031.68 351.877 1031.41 351.321C1031.17 350.828 1031.03 350.291 1031.01 349.743C1030.98 349.123 1031.15 348.489 1031.49 347.22L1038.67 320.428M1033.66 405.604L1095.98 422.304M1260.52 423.134L1254.68 444.95C1252.94 451.441 1252.07 454.687 1250.14 456.828C1248.45 458.711 1246.2 460.009 1243.72 460.536C1240.9 461.135 1237.66 460.266 1231.16 458.526L1216.47 454.589L1199.85 450.136L1183.23 445.683L1149.99 436.776L1116.75 427.87L1095.98 422.304M1260.52 423.134L1160.81 396.415M1260.52 423.134L1265.93 402.953M1021.65 250.979L1048.71 258.229C1050.87 258.809 1051.95 259.098 1052.67 259.741C1053.29 260.306 1053.73 261.056 1053.9 261.882C1054.1 262.821 1053.81 263.903 1053.23 266.067L1049.48 280.066M1265.93 402.953L1223.79 360.808M1095.98 422.304L1100.79 404.341C1101.01 403.519 1101.12 403.108 1101.31 402.738C1101.48 402.41 1101.69 402.106 1101.94 401.835C1102.22 401.53 1102.56 401.283 1103.25 400.788L1110.53 395.593C1111.22 395.099 1111.57 394.852 1111.85 394.547C1112.1 394.276 1112.31 393.972 1112.48 393.644C1112.66 393.273 1112.77 392.863 1112.99 392.041L1117.81 374.078" stroke="#8C8F94" stroke-width="2"/>
<circle cx="1165.92" cy="311.411" r="3.5" transform="rotate(15 1165.92 311.411)" fill="#8C8F94"/>
<circle cx="1104.75" cy="305.968" r="3.5" transform="rotate(15 1104.75 305.968)" fill="#8C8F94"/>
<circle cx="1117.42" cy="374.585" r="3.5" transform="rotate(15 1117.42 374.585)" fill="#8C8F94"/>
<circle cx="1049.78" cy="280.291" r="3.5" transform="rotate(15 1049.78 280.291)" fill="#8C8F94"/>
<circle cx="1038.82" cy="319.8" r="3.5" transform="rotate(15 1038.82 319.8)" fill="#8C8F94"/>
<circle cx="1159.32" cy="395.957" r="3.5" transform="rotate(15 1159.32 395.957)" fill="#8C8F94"/>
<circle cx="1223.66" cy="360.605" r="3.5" transform="rotate(15 1223.66 360.605)" fill="#8C8F94"/>
<g clip-path="url(#clip2_287_4757)">
<path d="M1095.67 345.552L1099.46 341.225L1095.95 325.272L1101.57 326.777L1103.34 336.914L1109.21 328.825L1114.34 330.199L1100.7 346.901L1095.67 345.552Z" fill="#8C8F94"/>
<path d="M1114.42 350.577L1118.43 335.615L1113.25 334.227L1116.06 330.661L1128.72 334.053L1127.64 338.083L1123.04 336.849L1119.03 351.811L1114.42 350.577Z" fill="#8C8F94"/>
<path d="M1160.25 362.855L1155.72 351.118L1165.11 343.804L1159.88 342.403L1151.78 349.276L1152.98 344.818L1154.04 340.838L1149.44 339.605L1144.35 358.596L1148.95 359.83L1149.83 356.567L1151.27 351.179L1154.58 361.337L1160.25 362.855Z" fill="#8C8F94"/>
<path d="M1190.39 370.932L1192.55 362.873L1185.64 361.023L1183.48 369.082L1178.88 367.848L1183.97 348.856L1188.57 350.09L1186.57 357.573L1193.47 359.423L1195.48 351.94L1200.08 353.174L1194.99 372.166L1190.39 370.932Z" fill="#8C8F94"/>
<path d="M1138.22 336.598C1136.34 336.094 1134.35 336.159 1132.51 336.784C1130.67 337.409 1129.06 338.566 1127.87 340.109C1126.69 341.652 1125.99 343.511 1125.86 345.451C1125.73 347.392 1126.19 349.326 1127.16 351.01C1128.13 352.694 1129.58 354.052 1131.32 354.912C1133.07 355.772 1135.03 356.096 1136.96 355.842C1138.88 355.588 1140.69 354.769 1142.16 353.486C1143.62 352.204 1144.67 350.517 1145.17 348.639C1145.84 346.12 1145.49 343.437 1144.19 341.178C1142.88 338.92 1140.74 337.272 1138.22 336.598ZM1134.29 351.247C1133.27 350.974 1132.36 350.404 1131.66 349.611C1130.96 348.817 1130.52 347.835 1130.38 346.788C1130.24 345.742 1130.42 344.678 1130.89 343.731C1131.35 342.784 1132.09 341.997 1133.01 341.47C1133.92 340.942 1134.97 340.698 1136.02 340.767C1137.08 340.836 1138.09 341.216 1138.92 341.859C1139.76 342.502 1140.39 343.379 1140.73 344.379C1141.07 345.378 1141.1 346.456 1140.83 347.476C1140.46 348.842 1139.56 350.006 1138.34 350.714C1137.11 351.421 1135.66 351.614 1134.29 351.249L1134.29 351.247Z" fill="#8C8F94"/>
<path d="M1090.74 323.876L1082.68 321.717L1077.6 340.702L1082.2 341.936L1083.89 335.612L1087.35 336.538C1089.01 336.951 1090.78 336.694 1092.25 335.821C1093.73 334.948 1094.81 333.53 1095.26 331.872C1095.7 330.213 1095.48 328.446 1094.63 326.951C1093.79 325.456 1092.39 324.351 1090.74 323.876ZM1087.12 332.776L1084.82 332.159L1086.36 326.404L1088.66 327.021C1089.41 327.242 1090.04 327.745 1090.41 328.423C1090.79 329.1 1090.89 329.899 1090.69 330.649C1090.49 331.398 1090.01 332.04 1089.34 332.437C1088.67 332.835 1087.88 332.956 1087.12 332.776Z" fill="#8C8F94"/>
<path d="M1180.54 356.516C1180.78 354.199 1180.19 351.871 1178.88 349.949C1177.56 348.027 1175.61 346.634 1173.36 346.019C1171.11 345.404 1168.72 345.608 1166.61 346.592C1164.5 347.577 1162.8 349.28 1161.83 351.397C1160.86 353.514 1160.67 355.907 1161.3 358.15C1161.93 360.394 1163.33 362.341 1165.26 363.645C1167.19 364.949 1169.52 365.525 1171.84 365.271C1174.15 365.016 1176.3 363.948 1177.9 362.256L1174.65 359.155C1174.06 359.786 1173.32 360.263 1172.5 360.544C1171.68 360.825 1170.8 360.902 1169.94 360.767C1169.09 360.632 1168.28 360.289 1167.59 359.77C1166.89 359.25 1166.34 358.569 1165.96 357.785L1180.38 356.523L1180.54 356.516ZM1165.59 354.234C1165.6 354.196 1165.61 354.16 1165.62 354.122C1165.91 353.054 1166.52 352.101 1167.37 351.395C1168.22 350.689 1169.27 350.264 1170.37 350.18C1171.47 350.096 1172.57 350.356 1173.52 350.925C1174.46 351.494 1175.21 352.344 1175.65 353.356L1165.59 354.234Z" fill="#8C8F94"/>
</g>
<path d="M1271.23 311.156C1274.06 321.738 1269.06 335.946 1262.94 342.066M1257.51 336.729C1263.28 330.962 1265.79 320.3 1263.85 313.06M1256.48 314.964C1258.27 321.642 1254.86 328.533 1252.16 331.302C1252.12 331.349 1252.04 331.337 1252.01 331.28L1241.74 313.499C1241.71 313.442 1241.63 313.431 1241.59 313.479C1239 316.153 1237.64 321.148 1238.62 324.803" stroke="#8C8F94" stroke-width="3" stroke-linecap="square"/>
<path d="M1195.22 583.873C1201.65 582.151 1206.7 580.793 1210.85 580.037C1215.04 579.273 1218.66 579.051 1222.2 579.804C1227.98 581.033 1233.23 584.062 1237.18 588.456C1239.61 591.146 1241.22 594.387 1242.66 598.402C1244.08 602.372 1245.43 607.427 1247.15 613.855L1253.78 638.582C1255.5 645.01 1256.86 650.062 1257.61 654.21C1258.38 658.405 1258.6 662.019 1257.84 665.559C1256.62 671.343 1253.59 676.59 1249.19 680.547C1246.5 682.968 1243.26 684.583 1239.25 686.018C1235.28 687.438 1230.22 688.789 1223.79 690.511L1058.43 734.821C1052 736.543 1046.95 737.9 1042.8 738.656C1038.6 739.42 1034.99 739.643 1031.45 738.891C1025.67 737.661 1020.42 734.631 1016.46 730.237C1014.04 727.548 1012.43 724.307 1010.99 720.292C1009.57 716.322 1008.22 711.267 1006.5 704.84L999.873 680.112C998.151 673.685 996.793 668.632 996.037 664.484C995.273 660.289 995.051 656.674 995.803 653.134C997.033 647.35 1000.06 642.104 1004.46 638.147C1007.15 635.726 1010.39 634.11 1014.4 632.675C1018.37 631.256 1023.43 629.905 1029.85 628.183L1195.22 583.873Z" fill="#EFEFF0" stroke="#EFEFF0" stroke-width="8"/>
<path d="M1003.74 679.077C1000.26 666.093 998.518 659.602 999.716 653.966C1000.77 649.008 1003.37 644.511 1007.13 641.12C1011.41 637.265 1017.91 635.525 1030.89 632.046L1196.26 587.737C1209.24 584.258 1215.73 582.518 1221.37 583.716C1226.32 584.77 1230.82 587.366 1234.21 591.133C1238.07 595.415 1239.81 601.906 1243.29 614.889L1249.91 639.617C1253.39 652.6 1255.13 659.092 1253.93 664.728C1252.88 669.686 1250.28 674.182 1246.52 677.574C1242.23 681.429 1235.74 683.168 1222.76 686.647L1057.39 730.957C1044.41 734.436 1037.92 736.175 1032.28 734.977C1027.32 733.924 1022.83 731.328 1019.44 727.561C1015.58 723.279 1013.84 716.787 1010.36 703.804L1003.74 679.077Z" stroke="#8C8F94" stroke-width="2"/>
<path d="M1083.02 653.525C1082.1 650.062 1081.63 648.331 1081.95 646.828C1082.23 645.506 1082.93 644.307 1083.93 643.403C1085.07 642.375 1086.8 641.911 1090.27 640.983L1206.49 609.842C1209.95 608.914 1211.68 608.451 1213.18 608.77C1214.5 609.051 1215.7 609.743 1216.61 610.748C1217.64 611.89 1218.1 613.621 1219.03 617.083L1227.81 649.847C1228.73 653.309 1229.2 655.04 1228.88 656.543C1228.6 657.865 1227.91 659.064 1226.9 659.969C1225.76 660.997 1224.03 661.461 1220.57 662.388L1104.35 693.53C1100.88 694.457 1099.15 694.921 1097.65 694.602C1096.33 694.321 1095.13 693.628 1094.22 692.624C1093.2 691.482 1092.73 689.751 1091.8 686.289L1083.02 653.525Z" stroke="#8C8F94" stroke-width="2"/>
<path d="M1075.05 673.22C1078.94 687.73 1070.33 702.645 1055.82 706.533C1041.31 710.421 1026.39 701.81 1022.5 687.299C1018.62 672.789 1027.23 657.874 1041.74 653.986C1056.25 650.098 1071.16 658.709 1075.05 673.22Z" stroke="#8C8F94" stroke-width="2"/>
<path d="M1105.74 651.745L1112.36 676.473M1115.01 649.261L1124.28 646.776L1127.6 659.14L1118.32 661.625L1121.64 673.988L1130.91 671.504M1133.56 644.291L1142.83 641.807L1146.14 654.171M1140.18 669.019L1149.46 666.534L1146.14 654.171M1146.14 654.171L1136.87 656.655M1152.1 639.322L1155.42 651.686L1164.69 649.201M1164.69 649.201L1161.38 636.837M1164.69 649.201L1168 661.565M1179.92 631.868L1170.65 634.353L1173.96 646.717L1183.23 644.232L1186.55 656.596L1177.27 659.08M1198.47 626.899L1189.19 629.383L1192.51 641.747M1192.51 641.747L1195.82 654.111L1205.09 651.626L1201.78 639.263L1192.51 641.747Z" stroke="#8C8F94" stroke-width="3" stroke-linecap="round" stroke-linejoin="round"/>
<path d="M1041.4 670.492C1041.56 671.093 1041.34 671.725 1040.9 672.16C1038.06 674.921 1036.77 679.09 1037.86 683.183C1039.48 689.212 1045.67 692.789 1051.7 691.174C1057.73 689.558 1061.31 683.362 1059.69 677.334C1058.6 673.241 1055.39 670.28 1051.55 669.305C1050.95 669.152 1050.45 668.712 1050.29 668.111C1050.01 667.068 1050.84 666.063 1051.89 666.299C1056.92 667.425 1061.16 671.237 1062.59 676.558C1064.63 684.186 1060.11 692.027 1052.48 694.071C1044.85 696.115 1037.01 691.588 1034.96 683.96C1033.54 678.639 1035.31 673.214 1039.1 669.725C1039.9 668.994 1041.12 669.448 1041.4 670.492ZM1046.65 666.12C1046.65 666.12 1046.65 666.12 1046.65 666.12L1047.43 669.04C1047.43 669.04 1047.43 669.04 1047.43 669.04C1047.43 669.04 1047.43 669.04 1047.43 669.04L1046.64 666.121C1046.64 666.12 1046.64 666.12 1046.65 666.12Z" fill="#8C8F94"/>
<path d="M1045.05 666.35L1047.95 677.169" stroke="#8C8F94" stroke-width="3" stroke-linecap="round"/>
<path d="M357.607 309.671C357.936 308.122 358.717 306.708 359.848 305.606L360.079 305.389L360.422 305.1C361.231 304.464 362.088 304.087 362.844 303.816C363.664 303.523 364.661 303.259 365.679 302.986L412.235 290.511C413.253 290.239 414.249 289.968 415.105 289.812C416.008 289.647 417.096 289.538 418.287 289.792C419.94 290.143 421.439 291.008 422.569 292.264C423.385 293.169 423.835 294.166 424.143 295.03C424.436 295.85 424.7 296.847 424.972 297.865L437.035 342.886C437.568 342.751 438.078 342.629 438.547 342.543C439.45 342.378 440.538 342.269 441.731 342.522C443.384 342.873 444.884 343.738 446.015 344.993C446.83 345.899 447.28 346.897 447.589 347.761C447.882 348.581 448.147 349.578 448.42 350.597L451.42 361.798L456.597 381.117C457.169 383.25 455.903 385.444 453.769 386.016L453.205 386.167C452.879 388.809 451.249 391.157 448.803 392.363C448.008 392.755 447.082 392.984 446.37 393.175L387.449 408.962C386.736 409.153 385.821 409.419 384.936 409.477C382.214 409.655 379.628 408.436 378.026 406.31L377.466 406.461C376.442 406.736 375.35 406.591 374.432 406.061C373.513 405.531 372.841 404.657 372.567 403.632L364.388 373.109C364.115 372.091 363.846 371.095 363.69 370.239C363.525 369.336 363.416 368.249 363.669 367.057C364.021 365.405 364.886 363.906 366.142 362.775C367.047 361.96 368.044 361.51 368.908 361.201C369.356 361.041 369.858 360.891 370.387 360.742L358.325 315.723C358.053 314.705 357.783 313.71 357.626 312.854C357.462 311.951 357.353 310.863 357.607 309.671Z" fill="#EFEFF0" stroke="#EFEFF0" stroke-width="8" stroke-linecap="round" stroke-linejoin="round"/>
<path d="M452.734 382.152L376.431 402.597L368.252 372.073C367.673 369.91 367.383 368.828 367.582 367.888C367.758 367.062 368.191 366.313 368.818 365.747C369.532 365.105 370.614 364.815 372.778 364.235L436.716 347.103C438.88 346.523 439.962 346.233 440.902 346.433C441.728 346.608 442.477 347.041 443.043 347.669C443.685 348.382 443.975 349.464 444.555 351.628L452.734 382.152ZM376.431 402.597L371.255 383.278C384.299 383.88 397.858 383.397 411.216 379.818C424.573 376.239 436.509 369.936 447.557 362.833L452.734 382.152M380.29 401.563C380.531 402.46 380.651 402.909 380.825 403.263C381.541 404.714 383.06 405.591 384.674 405.485C385.067 405.459 385.516 405.339 386.414 405.098L445.335 389.311C446.232 389.07 446.681 388.95 447.034 388.776C448.485 388.06 449.363 386.541 449.257 384.926C449.231 384.533 449.111 384.084 448.87 383.187M375.284 363.563L362.189 314.688C361.609 312.524 361.319 311.442 361.519 310.503C361.694 309.676 362.127 308.927 362.755 308.362C363.468 307.719 364.55 307.429 366.714 306.85L413.27 294.374C415.434 293.795 416.516 293.505 417.456 293.704C418.282 293.88 419.031 294.313 419.597 294.94C420.239 295.654 420.529 296.736 421.109 298.9L434.207 347.781L375.284 363.563ZM415.453 320.293L417.472 327.827C417.617 328.368 417.689 328.638 417.64 328.873C417.596 329.08 417.487 329.267 417.331 329.408C417.152 329.569 416.882 329.641 416.341 329.786L406.875 332.323C406.334 332.468 406.063 332.54 405.828 332.49C405.622 332.446 405.434 332.338 405.293 332.181C405.132 332.003 405.06 331.732 404.915 331.191L402.896 323.657C402.751 323.116 402.679 322.846 402.729 322.611C402.773 322.404 402.881 322.217 403.038 322.076C403.216 321.915 403.487 321.843 404.028 321.698L413.494 319.161C414.035 319.016 414.305 318.944 414.54 318.994C414.747 319.038 414.934 319.146 415.075 319.303C415.236 319.481 415.308 319.752 415.453 320.293ZM377.783 330.386L379.802 337.921C379.946 338.462 380.019 338.732 380.18 338.911C380.321 339.067 380.508 339.176 380.715 339.22C380.95 339.269 381.22 339.197 381.761 339.052L391.227 336.516C391.768 336.371 392.039 336.298 392.217 336.138C392.374 335.996 392.482 335.809 392.526 335.602C392.576 335.367 392.504 335.097 392.359 334.556L390.34 327.022C390.195 326.481 390.122 326.21 389.962 326.032C389.82 325.875 389.633 325.767 389.426 325.723C389.192 325.673 388.921 325.746 388.38 325.89L378.914 328.427C378.373 328.572 378.103 328.644 377.924 328.805C377.767 328.946 377.659 329.134 377.615 329.34C377.565 329.575 377.638 329.846 377.783 330.386Z" stroke="#8C8F94" stroke-width="2" stroke-linecap="round" stroke-linejoin="round"/>
</g>
<defs>
<linearGradient id="paint0_linear_287_4757" x1="272" y1="512" x2="407" y2="187" gradientUnits="userSpaceOnUse">
<stop stop-color="#DD2233"/>
<stop offset="1" stop-color="#B11B29"/>
</linearGradient>
<linearGradient id="paint1_linear_287_4757" x1="298" y1="661" x2="744.568" y2="959.128" gradientUnits="userSpaceOnUse">
<stop stop-color="#E44E5C"/>
<stop offset="1" stop-color="#EB7A85"/>
</linearGradient>
<linearGradient id="paint2_linear_287_4757" x1="958.568" y1="132.613" x2="875" y2="932.5" gradientUnits="userSpaceOnUse">
<stop stop-color="#F1A7AD"/>
<stop offset="1" stop-color="#EB7A85"/>
</linearGradient>
</defs>
</svg>

